<!-- Generated by IcoMoon.io -->
<svg version="1.1" xmlns="http://www.w3.org/2000/svg" width="26" height="32" viewBox="0 0 26 32">
<title>add-a-place-icon</title>
<path d="M13.091 0.001c-5.697 0-10.531 3.645-12.33 8.726h3.145c1.639-3.433 5.135-5.817 9.185-5.817 5.613 0 10.182 4.567 10.182 10.182 0 7.971-7.881 15.129-10.177 15.956-1.953-0.71-7.364-5.712-9.396-11.594h-3.040c2.268 7.964 9.923 14.545 12.432 14.545 2.957 0 13.091-8.95 13.091-18.908 0-7.231-5.86-13.091-13.091-13.091z"></path>
<path d="M13.091 7.316c-3.213 0-5.818 2.605-5.818 5.818 0 3.215 2.605 5.818 5.818 5.818s5.818-2.604 5.818-5.818c0-3.215-2.605-5.818-5.818-5.818zM13.091 16.045c-1.606 0-2.909-1.303-2.909-2.909s1.303-2.909 2.909-2.909 2.909 1.303 2.909 2.909-1.303 2.909-2.909 2.909z"></path>
<path d="M0 11.636h2.909v2.909h-2.909v-2.909z"></path>
</svg>
