<!-- Generated by IcoMoon.io -->
<svg version="1.1" xmlns="http://www.w3.org/2000/svg" width="35" height="32" viewBox="0 0 35 32">
<title>block-from-chat-icon</title>
<path d="M32 0h-28.8c-1.768 0-3.2 1.434-3.2 3.2v16c0 1.766 1.434 3.2 3.2 3.2 0 0 0.6 0 1.6 0v-3.2h-1.6v-16h28.8v19.2c1.766 0 3.2-1.434 3.2-3.2v-16c0-1.766-1.434-3.2-3.2-3.2zM20.8 22.4h1.6v-3.2h-1.6v3.2zM25.6 22.4h3.2v-3.2h-3.2v3.2z"></path>
<path d="M17.6 19.2l-9.6 6.626v-6.626h-3.2v12.8l12.8-9.6h3.2v-3.2z"></path>
<path d="M22.125 8.938l-2.262-2.262-2.262 2.262-2.262-2.262-2.264 2.262 2.262 2.262-2.262 2.264 2.264 2.262 2.262-2.262 2.262 2.262 2.262-2.262-2.262-2.264z"></path>
</svg>
