<!-- Generated by IcoMoon.io -->
<svg version="1.1" xmlns="http://www.w3.org/2000/svg" width="26" height="32" viewBox="0 0 26 32">
<title>calendar-icon</title>
<path d="M23.273 32h2.909v-2.909h-2.909v2.909zM23.273 2.911h-2.909v-1.456c0-0.801-0.652-1.455-1.455-1.455-0.804 0-1.455 0.653-1.455 1.455v1.456h-8.727v-1.456c0-0.801-0.652-1.455-1.455-1.455-0.804 0-1.455 0.653-1.455 1.455v1.456h-2.909c-1.606 0-2.909 1.302-2.909 2.909v23.271c0 1.607 1.303 2.909 2.909 2.909h17.455v-2.909h-17.455v-23.271h2.909v1.453c0 0.803 0.65 1.455 1.455 1.455 0.803 0 1.455-0.652 1.455-1.455v-1.453h8.727v1.453c0 0.803 0.65 1.455 1.455 1.455 0.803 0 1.455-0.652 1.455-1.455v-1.453h2.909v20.362h2.909v-20.362c0-1.607-1.303-2.909-2.909-2.909zM7.273 26.182h2.909v-2.909h-2.909v2.909zM14.545 26.182v-2.909h-2.909v2.909h2.909zM16 26.182h2.909v-2.909h-2.909v2.909zM14.545 18.909h-7.273v2.909h7.273v-2.909zM18.909 18.909h-2.909v2.909h2.909v-2.909zM14.545 14.547h-7.273v2.908h7.273v-2.908zM18.909 14.547h-2.909v2.908h2.909v-2.908z"></path>
</svg>
