<!-- Generated by IcoMoon.io -->
<svg version="1.1" xmlns="http://www.w3.org/2000/svg" width="43" height="32" viewBox="0 0 43 32">
<title>camera-icon</title>
<path d="M21.333 10.667c-3.927 0-7.111 3.182-7.111 7.111 0 3.927 3.184 7.111 7.111 7.111s7.111-3.184 7.111-7.111c0-3.929-3.184-7.111-7.111-7.111zM21.333 21.337c-1.963 0-3.556-1.593-3.556-3.556s1.593-3.556 3.556-3.556 3.556 1.593 3.556 3.556-1.593 3.556-3.556 3.556zM35.556 3.556h-3.556c0-1.964-1.593-3.556-3.556-3.556h-14.222c-1.963 0-3.556 1.591-3.556 3.556h-3.556c-3.927 0-7.111 3.184-7.111 7.111v14.222c0 3.929 3.184 7.111 7.111 7.111 0 0 6.924 0 15.89 0h0.11v-3.556h-16c-1.963 0-3.556-1.593-3.556-3.556v-14.222c0-1.963 1.593-3.556 3.556-3.556h7.111v-3.556h14.222v3.556h7.111c1.963 0 3.556 1.593 3.556 3.556v14.222c0 1.963-1.593 3.556-3.556 3.556h-1.778v3.556c1.122 0 1.778 0 1.778 0 3.927 0 7.111-3.182 7.111-7.111v-14.222c0-3.927-3.184-7.111-7.111-7.111zM26.667 32h3.556v-3.556h-3.556v3.556z"></path>
</svg>
