<!-- Generated by IcoMoon.io -->
<svg version="1.1" xmlns="http://www.w3.org/2000/svg" width="32" height="32" viewBox="0 0 32 32">
<title>happy-sticker-icon</title>
<path d="M25.6 0.002h-4.8v3.2h4.8c1.766 0 3.2 1.432 3.2 3.198v12.8h-3.2c-3.534 0-6.4 2.867-6.4 6.402v3.2h-12.8c-1.766 0-3.2-1.434-3.2-3.2v-19.202c0-1.766 1.434-3.198 3.2-3.198h4.8v-3.2h-4.8c-3.534 0-6.4 2.864-6.4 6.398v19.202c0 3.534 2.866 6.398 6.4 6.398h17.6c3.234-3.248 5-4.765 8-7.998v-17.602c0-3.533-2.866-6.398-6.4-6.398zM22.4 28.802v-3.2c0-1.766 1.434-3.2 3.2-3.2h3.2c-1.8 1.618-3.982 3.949-6.4 6.4zM11.2 12.8h-3.2v3.2h3.2v-3.2zM15.978 22.395c2.646 0 4.792-1.358 4.792-3.034v-0.158h-9.586v0.158c0 1.675 2.147 3.034 4.794 3.034zM17.6 0h-3.2v3.2h3.2v-3.2zM23.998 12.8h-3.198v3.2h3.198v-3.2z"></path>
</svg>
