<!-- Generated by IcoMoon.io -->
<svg version="1.1" xmlns="http://www.w3.org/2000/svg" width="33" height="32" viewBox="0 0 33 32">
<title>happy-faces-icon</title>
<path d="M13.329 5.357c-7.364 0-13.333 5.965-13.333 13.325 0 5.971 3.929 11.023 9.344 12.716v-2.823c-3.908-1.584-6.667-5.409-6.667-9.885 0-5.889 4.776-10.665 10.667-10.665s10.667 4.776 10.667 10.665c0 4.476-2.759 8.303-6.667 9.885v2.815c5.404-1.7 9.323-6.745 9.323-12.708 0-7.36-5.969-13.325-13.333-13.325zM9.34 16.025h-2.667v2.665h2.667v-2.665zM17.34 16.025v2.665h2.667v-2.665h-2.667zM9.328 21.495c0 1.395 1.788 2.527 3.995 2.527s3.995-1.132 3.995-2.527v-0.135h-7.989v0.135zM12.007 32.025h2.667v-2.668h-2.667v2.668zM13.805 2.691h8.868c0 0 1.495 0.417 2.183 0.697l2.397-1.797c-1.747-0.993-3.761-1.565-5.913-1.565-2.856 0-5.475 1.001-7.535 2.665zM32.472 7.56l-2.131 2.129c0.195 0.751 0.331 1.523 0.331 2.336 0 1.756-0.488 3.392-1.333 4.789v4.14c2.452-2.195 4-5.38 4-8.931 0.001-1.58-0.311-3.083-0.867-4.464zM30.673 4.025h-2.667v2.667h2.667v-2.667z"></path>
</svg>
