<!-- Generated by IcoMoon.io -->
<svg version="1.1" xmlns="http://www.w3.org/2000/svg" width="36" height="32" viewBox="0 0 36 32">
<title>headphones-icon</title>
<path d="M9.792 17.78c0.491 0 0.889 0.398 0.889 0.889v8.891c0 0.489-0.398 0.885-0.889 0.885s-0.889-0.396-0.889-0.885v-8.891c0-0.491 0.398-0.889 0.889-0.889zM9.792 14.224c-2.452 0-4.444 1.995-4.444 4.444v8.891c0 2.448 1.993 4.441 4.444 4.441s4.444-1.993 4.444-4.441v-8.891c0-2.45-1.993-4.444-4.444-4.444v0z"></path>
<path d="M6.972 26.597c-1.883-0.075-3.388-1.612-3.388-3.515s1.508-3.44 3.388-3.515v-3.556c-3.861 0.078-6.972 3.218-6.972 7.099s3.111 7.020 6.972 7.097v-3.611z"></path>
<path d="M25.762 17.78c0.491 0 0.889 0.398 0.889 0.889v8.891c0 0.489-0.398 0.885-0.889 0.885s-0.889-0.396-0.889-0.885v-8.891c0-0.491 0.398-0.889 0.889-0.889zM25.762 14.224c-2.452 0-4.444 1.995-4.444 4.444v8.891c0 2.448 1.993 4.441 4.444 4.441 2.45 0 4.443-1.993 4.443-4.441v-8.891c0-2.45-1.993-4.444-4.443-4.444v0z"></path>
<path d="M28.583 26.597c1.883-0.075 3.388-1.612 3.388-3.515s-1.508-3.44-3.388-3.515v-3.556c3.861 0.078 6.972 3.218 6.972 7.099s-3.111 7.020-6.972 7.097v-3.611z"></path>
<path d="M4.404 9.426c-0.539 1.5-0.848 3.111-0.848 4.796v4.686h3.556v-4.686c0-0.942 0.135-1.851 0.364-2.72l-3.072-2.076z"></path>
<path d="M17.778 0c-1.687 0-3.298 0.309-4.8 0.848l2.069 3.074c0.875-0.231 1.785-0.366 2.731-0.366 5.883 0 10.667 4.784 10.667 10.667v4.686h3.556v-4.686c0-7.854-6.368-14.222-14.222-14.222z"></path>
<path d="M7.148 3.518h3.556v3.556h-3.556v-3.556z"></path>
</svg>
