<!-- Generated by IcoMoon.io -->
<svg version="1.1" xmlns="http://www.w3.org/2000/svg" width="43" height="32" viewBox="0 0 43 32">
<title>logout-icon</title>
<path d="M26.667 3.557c4.962 0 9.232 2.91 11.23 7.111h3.838c-2.197-6.212-8.105-10.668-15.068-10.668s-12.873 4.457-15.070 10.667h3.84c1.998-4.199 6.268-7.109 11.23-7.109zM26.667 28.446c-4.962 0-9.232-2.91-11.23-7.111h-3.84c2.199 6.21 8.107 10.665 15.070 10.665 6.962 0 12.871-4.455 15.070-10.665h-3.838c-2 4.201-6.27 7.111-11.232 7.111zM23.111 17.778v-3.556h-16.306l3.252-3.25-2.514-2.514-7.543 7.541 7.543 7.543 2.514-2.514-3.252-3.252h16.306zM39.111 14.224v3.556h3.556v-3.556h-3.556z"></path>
</svg>
