<!-- Generated by IcoMoon.io -->
<svg version="1.1" xmlns="http://www.w3.org/2000/svg" width="39" height="32" viewBox="0 0 39 32">
<title>manage-widgets-icon</title>
<path d="M0 3.554v24.891c0 1.963 1.593 3.556 3.556 3.556h14.222v-3.556h-14.222v-24.891h14.222v-3.556h-14.222c-1.963 0-3.556 1.593-3.556 3.556zM10.667 24.889v-17.778h-3.556v17.778h3.556zM14.222 24.889h3.556v-17.778h-3.556v17.778zM21.333 3.554h3.556v-3.556h-3.556v3.556zM28.444 3.554h3.556v-3.556h-3.556v3.556zM35.556-0.002v3.556h3.556v-3.556h-3.556zM35.556 10.665h3.556v-3.554h-3.556v3.554zM35.556 17.776h3.556v-3.556h-3.556v3.556zM35.556 24.889h3.556v-3.556h-3.556v3.556zM35.556 32h3.556v-3.556h-3.556v3.556zM28.444 32h3.556v-3.556h-3.556v3.556zM21.333 32h3.556v-3.556h-3.556v3.556z"></path>
</svg>
