<!-- Generated by IcoMoon.io -->
<svg version="1.1" xmlns="http://www.w3.org/2000/svg" width="32" height="32" viewBox="0 0 32 32">
<title>multimedia-icon</title>
<path d="M28.8 0.002h-22.4v3.2h22.4v5.41l-11.57 5.786-7.579-8.496-6.451 5.166v-4.666h-3.2v22.4c0 1.766 1.434 3.198 3.2 3.198h25.6c1.766 0 3.2-1.432 3.2-3.198v-25.602c0-1.766-1.434-3.198-3.2-3.198zM3.2 15.168l6.203-4.963 7.872 8.995h-14.075v-4.032zM28.8 28.802h-25.6v-6.402h25.6v6.402zM28.8 19.2h-7.285l-2.078-2.33 9.363-4.682v7.011zM3.2 0.002h-3.2v3.2h3.2v-3.2zM11.2 24h-3.2v3.2h3.2v-3.2zM17.6 24h-3.2v3.2h3.2v-3.2zM24 24h-3.2v3.2h3.2v-3.2z"></path>
</svg>
