<!-- Generated by IcoMoon.io -->
<svg version="1.1" xmlns="http://www.w3.org/2000/svg" width="28" height="32" viewBox="0 0 28 32">
<title>play-icon</title>
<path d="M24.71 10.664l-15.614-9.574c-1.146-0.698-2.312-1.048-3.478-1.048-2.792 0-5.618 2.188-5.618 6.368v5.59h4c0-4.784 0-5.592 0-5.592 0-1.498 0.628-2.368 1.618-2.368 0.408 0 0.876 0.148 1.388 0.458l15.63 9.584c1.758 1.066 1.848 2.812 0.088 3.878l-15.718 9.58c-0.512 0.314-0.982 0.46-1.39 0.46-0.988 0-1.616-0.868-1.616-2.364 0 0 0-0.6 0-1.586 0-0.012 0-0.036 0-0.048h-4v1.634c0 4.178 2.826 6.364 5.616 6.364 1.166 0 2.334-0.35 3.47-1.042l15.72-9.58c2.026-1.23 3.194-3.164 3.194-5.302 0.002-2.172-1.198-4.144-3.29-5.412z"></path>
<path d="M0 16h4v4h-4v-4z"></path>
</svg>
