<!-- Generated by IcoMoon.io -->
<svg version="1.1" xmlns="http://www.w3.org/2000/svg" width="37" height="32" viewBox="0 0 37 32">
<title>register-icon</title>
<path d="M16 3.213c3.24 0 6.192 1.214 8.446 3.2h4.346c-2.917-3.888-7.549-6.413-12.781-6.413-7.165 0-13.227 4.714-15.259 11.213h3.387c1.899-4.69 6.491-8 11.861-8zM16 28.813c-5.37 0-9.962-3.31-11.861-8h-3.378c2.040 6.485 8.094 11.187 15.25 11.187 5.222 0 9.842-2.515 12.762-6.387h-4.325c-2.256 1.986-5.208 3.2-8.448 3.2zM32 14.413v-4.8h-3.2v4.8h-4.8v3.2h4.8v4.8h3.2v-4.8h4.8v-3.2h-4.8zM3.2 14.413h-3.2v3.2h3.2v-3.2z"></path>
</svg>
