<!-- Generated by IcoMoon.io -->
<svg version="1.1" xmlns="http://www.w3.org/2000/svg" width="38" height="32" viewBox="0 0 38 32">
<title>remove-playlist-icon</title>
<path d="M8.813 19.202c0.442 0 0.8 0.358 0.8 0.8v8.002c0 0.44-0.358 0.797-0.8 0.797s-0.8-0.357-0.8-0.797v-8.002c0-0.442 0.358-0.8 0.8-0.8zM8.813 16.002c-2.206 0-4 1.795-4 4v8.002c0 2.203 1.794 3.997 4 3.997s4-1.794 4-3.997v-8.002c0-2.205-1.794-4-4-4v0z"></path>
<path d="M6.275 27.138c-1.694-0.067-3.050-1.451-3.050-3.163s1.357-3.096 3.050-3.163v-3.2c-3.475 0.070-6.275 2.896-6.275 6.389s2.8 6.318 6.275 6.387v-3.25z"></path>
<path d="M23.186 19.202c0.442 0 0.8 0.358 0.8 0.8v8.002c0 0.44-0.358 0.797-0.8 0.797s-0.8-0.357-0.8-0.797v-8.002c0-0.442 0.358-0.8 0.8-0.8zM23.186 16.002c-2.206 0-4 1.795-4 4v8.002c0 2.203 1.794 3.997 4 3.997 2.205 0 3.998-1.794 3.998-3.997v-8.002c0-2.205-1.794-4-3.998-4v0z"></path>
<path d="M25.725 27.138c1.694-0.067 3.050-1.451 3.050-3.163s-1.357-3.096-3.050-3.163v-3.2c3.475 0.070 6.275 2.896 6.275 6.389s-2.8 6.318-6.275 6.387v-3.25z"></path>
<path d="M3.963 11.683c-0.485 1.35-0.763 2.8-0.763 4.317v4.218h3.2v-4.218c0-0.848 0.122-1.666 0.328-2.448l-2.765-1.869z"></path>
<path d="M16 3.2c-1.518 0-2.968 0.278-4.32 0.763l1.862 2.766c0.787-0.208 1.606-0.33 2.458-0.33 5.294 0 9.6 4.306 9.6 9.6v4.218h3.2v-4.218c0-7.069-5.731-12.8-12.8-12.8z"></path>
<path d="M6.434 6.366h3.2v3.2h-3.2v-3.2z"></path>
<path d="M28.8 0h9.6v3.2h-9.6v-3.2z"></path>
</svg>
