<!-- Generated by IcoMoon.io -->
<svg version="1.1" xmlns="http://www.w3.org/2000/svg" width="35" height="32" viewBox="0 0 35 32">
<title>save-playlist-icon</title>
<path d="M8.012 20.365c0.401 0 0.727 0.326 0.727 0.727v7.274c0 0.4-0.326 0.724-0.727 0.724s-0.727-0.324-0.727-0.724v-7.274c0-0.401 0.326-0.727 0.727-0.727zM8.012 17.456c-2.006 0-3.636 1.632-3.636 3.636v7.274c0 2.003 1.631 3.633 3.636 3.633s3.636-1.631 3.636-3.633v-7.274c0-2.004-1.631-3.636-3.636-3.636v0z"></path>
<path d="M5.705 27.58c-1.54-0.061-2.772-1.319-2.772-2.876s1.233-2.815 2.772-2.876v-2.909c-3.159 0.064-5.705 2.633-5.705 5.808s2.545 5.744 5.705 5.807v-2.954z"></path>
<path d="M21.078 20.365c0.401 0 0.727 0.326 0.727 0.727v7.274c0 0.4-0.326 0.724-0.727 0.724s-0.727-0.324-0.727-0.724v-7.274c0-0.401 0.326-0.727 0.727-0.727zM21.078 17.456c-2.006 0-3.636 1.632-3.636 3.636v7.274c0 2.003 1.631 3.633 3.636 3.633 2.004 0 3.635-1.631 3.635-3.633v-7.274c0-2.004-1.631-3.636-3.635-3.636v0z"></path>
<path d="M23.386 27.58c1.54-0.061 2.772-1.319 2.772-2.876s-1.233-2.815-2.772-2.876v-2.909c3.159 0.064 5.705 2.633 5.705 5.808s-2.545 5.744-5.705 5.807v-2.954z"></path>
<path d="M3.603 13.53c-0.441 1.228-0.694 2.545-0.694 3.924v3.834h2.909v-3.834c0-0.771 0.111-1.514 0.298-2.225l-2.513-1.699z"></path>
<path d="M14.545 5.818c-1.38 0-2.698 0.253-3.927 0.694l1.693 2.515c0.716-0.189 1.46-0.3 2.234-0.3 4.813 0 8.727 3.914 8.727 8.727v3.834h2.909v-3.834c0-6.426-5.21-11.636-11.636-11.636z"></path>
<path d="M5.849 8.697h2.909v2.909h-2.909v-2.909z"></path>
<path d="M29.091 0h2.909v8.727h-2.909v-8.727z"></path>
<path d="M26.182 2.909h8.727v2.909h-8.727v-2.909z"></path>
</svg>
