<!-- Generated by IcoMoon.io -->
<svg version="1.1" xmlns="http://www.w3.org/2000/svg" width="32" height="32" viewBox="0 0 32 32">
<title>settings-icon</title>
<path d="M7.111 3.881v-3.881h-3.556v3.883c-2.068 0.734-3.556 2.686-3.556 5.006s1.488 4.272 3.556 5.006v10.994h3.556v-10.996c2.068-0.734 3.556-2.686 3.556-5.004s-1.488-4.272-3.556-5.008zM7.111 10.667h-3.556v-3.556h3.556v3.556zM28.444 3.881v-3.881h-3.556v3.883c-2.066 0.734-3.556 2.686-3.556 5.006s1.49 4.27 3.556 5.006v18.105h3.556v-18.107c2.066-0.734 3.556-2.686 3.556-5.004s-1.49-4.272-3.556-5.008zM28.444 10.667h-3.556v-3.556h3.556v3.556zM17.778 18.105v-18.105h-3.556v18.105c-2.068 0.734-3.556 2.686-3.556 5.006 0 2.318 1.488 4.27 3.556 5.006v3.883h3.556v-3.883c2.066-0.736 3.556-2.69 3.556-5.006 0-2.32-1.49-4.272-3.556-5.006zM17.778 24.887h-3.556v-3.554h3.556v3.554zM3.556 32h3.556v-3.556h-3.556v3.556z"></path>
</svg>
