<!-- Generated by IcoMoon.io -->
<svg version="1.1" xmlns="http://www.w3.org/2000/svg" width="32" height="32" viewBox="0 0 32 32">
<title>settings-v2-icon</title>
<path d="M8.889 21.333c-2.32 0-4.272 1.488-5.006 3.556h-3.883v3.556h3.883c0.734 2.066 2.686 3.556 5.006 3.556s4.272-1.49 5.006-3.556h10.994v-3.556h-10.994c-0.734-2.068-2.686-3.556-5.006-3.556zM10.667 28.444h-3.556v-3.556h3.556v3.556zM23.111 10.667c-2.32 0-4.272 1.49-5.006 3.556h-18.105v3.556h18.105c0.734 2.068 2.688 3.556 5.006 3.556s4.272-1.49 5.006-3.556h3.883v-3.556h-3.883c-0.734-2.068-2.686-3.556-5.006-3.556zM24.889 17.778h-3.556v-3.556h3.556v3.556zM13.895 3.556c-0.734-2.068-2.686-3.556-5.006-3.556s-4.272 1.488-5.006 3.556h-3.883v3.556h3.883c0.734 2.066 2.686 3.556 5.006 3.556s4.272-1.488 5.006-3.556h18.105v-3.556h-18.105zM10.667 7.111h-3.556v-3.556h3.556v3.556zM28.444 28.444h3.556v-3.556h-3.556v3.556z"></path>
</svg>
