<!-- Generated by IcoMoon.io -->
<svg version="1.1" xmlns="http://www.w3.org/2000/svg" width="25" height="32" viewBox="0 0 25 32">
<title>small-pin-icon</title>
<path d="M12.444 7.111c-2.946 0-5.333 2.389-5.333 5.333 0 2.946 2.388 5.333 5.333 5.333s5.333-2.386 5.333-5.333c0-2.944-2.388-5.333-5.333-5.333zM12.444 14.222c-0.981 0-1.778-0.796-1.778-1.778s0.796-1.778 1.778-1.778 1.778 0.796 1.778 1.778-0.796 1.778-1.778 1.778z"></path>
<path d="M12.444 0c-4.823 0-8.996 2.891-11.061 7.111h4.194c1.632-2.151 4.087-3.556 6.868-3.556 4.901 0 8.889 4.277 8.889 9.534 0 7.237-6.46 13.865-8.876 15.204-1.838-1.054-6.148-5.36-8.011-10.516h-3.73c2.263 7.817 9.374 14.222 11.728 14.222 2.811 0 12.444-8.951 12.444-18.91 0-7.228-5.573-13.090-12.444-13.090z"></path>
<path d="M0 10.667h3.556v3.556h-3.556v-3.556z"></path>
</svg>
