<!-- Generated by IcoMoon.io -->
<svg version="1.1" xmlns="http://www.w3.org/2000/svg" width="25" height="32" viewBox="0 0 25 32">
<title>small-calendar-icon</title>
<path d="M21.333 3.556h-1.778v-1.778c0-0.983-0.796-1.778-1.778-1.778-0.983 0-1.778 0.795-1.778 1.778v1.778h-7.111v-1.778c0-0.983-0.796-1.778-1.778-1.778-0.983 0-1.778 0.795-1.778 1.778v1.778h-1.778c-1.963 0-3.556 1.415-3.556 3.159v22.123c0 1.748 1.593 3.163 3.556 3.163h14.222v-3.556h-14.222v-21.333h1.778v1.778c0 0.981 0.795 1.778 1.778 1.778 0.981 0 1.778-0.796 1.778-1.778v-1.778h7.111v1.778c0 0.981 0.795 1.778 1.778 1.778 0.981 0 1.778-0.796 1.778-1.778v-1.778h1.778v17.778h3.556v-18.174c0-1.744-1.593-3.159-3.556-3.159zM21.333 32h3.556v-3.556h-3.556v3.556zM7.111 17.776h10.667v-3.556h-10.667v3.556zM7.111 24.887h3.556v-3.556h-3.556v3.556zM14.222 24.887h3.556v-3.556h-3.556v3.556z"></path>
</svg>
