<!-- Generated by IcoMoon.io -->
<svg version="1.1" xmlns="http://www.w3.org/2000/svg" width="38" height="32" viewBox="0 0 38 32">
<title>weather-icon</title>
<path d="M18.909 29.091h2.909v2.909h-2.909v-2.909z"></path>
<path d="M28.236 21.393c0-3.446-3.037-6.243-6.828-6.353-1.809-2.070-4.609-3.405-7.76-3.405-5.252 0-9.536 3.697-9.852 8.362-2.256 1.062-3.796 3.185-3.796 5.638 0 3.516 3.159 6.365 7.059 6.365h8.941v-2.909h-8.941c-2.288 0-4.15-1.549-4.15-3.456 0-1.238 0.815-2.39 2.124-3.005l1.548-0.729 0.116-1.708c0.214-3.168 3.267-5.649 6.95-5.649 2.201 0 4.231 0.879 5.571 2.41l0.836 0.956 1.27 0.036c2.208 0.065 4.004 1.61 4.004 3.446v2.016l1.887 0.707c1.139 0.431 1.876 1.36 1.876 2.368 0 0.644 0 2.608-3.209 2.608h-1.155v2.909h1.155c3.379 0 6.118-1.789 6.118-5.517 0-2.294-1.553-4.26-3.764-5.089z"></path>
<path d="M21.818 7.273c-4.016 0-7.363 2.727-8.38 6.419l2.561 0.855 0.179 0.087c0.615-2.551 2.899-4.452 5.639-4.452 3.213 0 5.818 2.607 5.818 5.818 0 1.686-0.729 3.193-1.875 4.257 0.522 0.682 1.168 1.529 1.756 2.304 1.841-1.603 3.028-3.932 3.028-6.561 0-4.819-3.908-8.727-8.727-8.727zM13.693 5.818l-2.057-2.058c-0.569-0.567-1.489-0.567-2.057 0-0.569 0.57-0.569 1.489 0 2.058l2.057 2.057c0.569 0.57 1.488 0.57 2.057 0 0.569-0.567 0.569-1.487 0-2.057zM21.818 5.818c0.804 0 1.455-0.652 1.455-1.455v-2.909c0-0.801-0.65-1.455-1.455-1.455s-1.455 0.653-1.455 1.456v2.909c0 0.801 0.65 1.453 1.455 1.453zM36.364 13.091h-2.909c-0.804 0-1.455 0.652-1.455 1.456s0.65 1.453 1.455 1.453h2.909c0.804 0 1.455-0.649 1.455-1.453s-0.65-1.456-1.455-1.456z"></path>
<path d="M33.277 3.223c0.57 0.569 0.567 1.487-0.001 2.057l-2.057 2.057c-0.569 0.569-1.487 0.57-2.057 0.001-0.569-0.57-0.569-1.489 0-2.060l2.057-2.057c0.569-0.569 1.488-0.567 2.058 0.001z"></path>
</svg>
