<!-- Generated by IcoMoon.io -->
<svg version="1.1" xmlns="http://www.w3.org/2000/svg" width="30" height="32" viewBox="0 0 30 32">
<title>weather-refresh-icon</title>
<path d="M14.769 32c-8.155 0-14.769-6.614-14.769-14.769 0-4.177 1.762-7.909 4.561-10.582l-3.414-3.412 12.18-1.794-1.794 12.18-3.348-3.35c-0.475 0.468-0.99 0.906-1.371 1.465v0c-1.115 1.585-1.89 3.407-1.89 5.494 0 5.438 4.409 9.846 9.846 9.846s9.846-4.409 9.846-9.846c0-2.4-0.891-4.566-2.316-6.274l3.764-3.136c2.139 2.56 3.476 5.814 3.476 9.41 0 8.155-6.614 14.769-14.769 14.769z"></path>
</svg>
