<!-- Generated by IcoMoon.io -->
<svg version="1.1" xmlns="http://www.w3.org/2000/svg" width="26" height="32" viewBox="0 0 26 32">
<title>week-calendar-icon</title>
<path d="M23.273 32h2.909v-2.908h-2.909v2.908zM23.273 2.911h-2.909v-1.456c0-0.803-0.652-1.455-1.455-1.455-0.804 0-1.455 0.652-1.455 1.455v1.455h-8.727v-1.455c0-0.803-0.652-1.455-1.455-1.455-0.804 0-1.455 0.652-1.455 1.455v1.455h-2.909c-1.606 0-2.909 1.302-2.909 2.909v23.273c0 1.607 1.303 2.909 2.909 2.909h17.455v-2.908h-17.455v-23.274h2.909v1.455c0 0.803 0.65 1.455 1.455 1.455 0.803 0 1.455-0.652 1.455-1.455v-1.455h8.727v1.455c0 0.803 0.65 1.455 1.455 1.455 0.803 0 1.455-0.652 1.455-1.455v-1.455h2.909v20.364h2.909v-20.364c0-1.606-1.303-2.908-2.909-2.908zM7.273 26.182h11.636v-2.908h-11.636v2.908zM18.909 18.909h-11.636v2.911h11.636v-2.911zM18.909 14.545h-11.636v2.909h11.636v-2.909z"></path>
</svg>
